ply
format ascii 1.0
comment VCGLIB generated
element vertex 284
property float x
property float y
property float z
property float nx
property float ny
property float nz
element face 564
property list uchar int vertex_indices
end_header
-1.52316 64.52 8.13 -0.220921 0.768386 0.600647 
-6.85315 65.28 -0 -0.342155 0.939643 -4.87856e-009 
31.7468 100.08 0 -0.589608 0.80769 3.45769e-008 
39.3669 98.81 6.1 -0.215748 0.469662 0.856079 
64.7668 116.08 0 -0.30321 0.952924 -6.22703e-008 
68.0768 113.04 3.56 -0.0607127 0.438712 0.896574 
96.2668 118.37 -0 0.123017 0.992405 4.42939e-008 
98.0468 114.05 2.06233 0.099881 0.235644 0.966693 
114.297 113.54 -0 0.793234 0.608918 0 
96.7768 54.87 6.5171 0.437826 0.518939 0.734174 
96.2668 72.9 0 0.90248 0.430732 -1.26483e-007 
106.937 48.01 0 0.621139 0.7837 2.01389e-008 
57.1469 62.74 11.68 0.105142 0.441924 0.89087 
72.1368 84.08 6.63335 0.163529 0.0968607 0.981772 
82.8069 95.76 4.01288 0.130338 0.0274463 0.99109 
-173.396 -11.112 -0 -0.649474 0.760384 -9.74569e-009 
-179.36 -18.5136 7.62 -0.723025 0.483416 0.493501 
-184.738 -21.8899 -0 -0.904354 0.426782 -7.2877e-009 
-154.622 3.13223 -0 -0.561457 0.827506 2.72727e-008 
-158.945 -2.88046 13.97 -0.596625 0.668109 0.444599 
-132.665 15.8376 5.33 -0.503185 0.829183 0.243434 
-91.583 40.962 -0 -0.421637 0.906765 0 
-93.1038 34.9774 18.29 -0.386351 0.775622 0.499143 
-131.827 13.721 13.97 -0.48698 0.811691 0.322505 
-47.3554 57.9379 -0 -0.273695 0.961817 0 
-48.5549 52.6792 22.35 -0.199435 0.777621 0.596264 
-4.57315 49.54 24.64 -0.0101134 0.635617 0.771938 
53.5968 48.01 26.67 0.106895 0.546279 0.830754 
109.727 36.07 20.32 0.266693 0.649116 0.712407 
164.598 24.1658 11.68 0.27363 0.794199 0.542563 
164.309 28.407 0 0.287259 0.957853 -2.0124e-008 
205.338 15.5377 0 0.362389 0.932027 -1.17181e-008 
204.679 3.80705 14.73 0.300495 0.584193 0.753937 
229.959 6.92648 0 0.420544 0.907272 0 
230.871 -8.85446 11.94 0.295263 0.363277 0.883657 
253.444 -2.32179 0 0.451231 0.892407 -3.37296e-008 
255.28 -16.9703 7.87 0.0915478 0.462466 0.881898 
272.059 -11.2172 0 0.429053 0.903279 4.31865e-008 
274.109 -20.2412 9.65 0.386 0.701812 0.598719 
284.51 -24.5968 0 0.689101 0.724665 0 
281.052 -26.8431 9.37588 0.522985 0.748013 0.408611 
-134.884 7.60313 22.35 -0.42635 0.727266 0.537876 
-118.785 4.99101 32.77 -0.248001 0.540417 0.804018 
-87.9324 20.5296 31.7052 -0.237293 0.526426 0.816436 
-49.6027 33.9115 32 -0.107908 0.486162 0.867181 
-4.57315 31.76 35.81 -0.00645722 0.484095 0.874992 
45.9768 30.49 34.04 0.0904382 0.400424 0.911856 
106.427 22.61 28.45 0.161933 0.498442 0.851665 
164.256 16.5699 18.29 0.236021 0.582113 0.778099 
-131.497 -6.94731 36.58 -0.304694 0.189601 0.933388 
-141.497 -4.59121 31.75 -0.471805 0.341325 0.812956 
-149.679 -11.0458 27.43 -0.519466 0.284127 0.80587 
-167.293 -26.6608 20.83 -0.6384 0.37755 0.670747 
-182.641 -39.6545 10.16 -0.74166 0.364613 0.563025 
-130.046 -17.0121 35.81 -0.283439 0.0369685 0.958278 
-140.571 -11.8026 30.99 -0.411162 0.0113189 0.911492 
-185.046 -47.1009 13.97 -0.601257 0.249346 0.759155 
-179.009 -57.2859 14.99 -0.329907 -0.0588731 0.942176 
-207.502 -78.1179 7.37 -0.181438 -0.169043 0.968765 
-212.375 -75.4151 7.37 -0.493987 0.147547 0.856858 
-217.504 -78.8121 4.06 -0.830125 0.0279307 0.556877 
-218.644 -77.1922 -0 -0.964693 0.263376 3.30407e-009 
-192.496 -47.7563 -0 -0.842572 0.538584 4.84543e-009 
-189.516 -45.706 5.08 -0.783551 0.444589 0.434038 
-151.582 -24.6449 30.48 -0.260957 0.135046 0.955858 
-143.585 -17.4122 30.73 -0.362238 0.201541 0.910035 
-150.797 -27.5198 30.73 -0.33249 0.11161 0.93648 
-164.589 -30.9595 26.42 -0.494104 0.114036 0.861892 
-161.742 -36.5444 25.91 -0.361756 -0.160823 0.918296 
-175.528 -61.3983 16.26 -0.447019 0.0866818 0.890315 
-201.257 -79.6503 8.38 -0.313846 0.0447027 0.948421 
-156.07 -47.9834 27.0472 -0.444632 -0.101801 0.88991 
-145.948 -33.532 34.54 -0.307077 -0.000673672 0.951684 
-123.819 -43.2679 34.8 -0.167255 -0.372338 0.912902 
-154.001 -53.7546 27.43 -0.233779 -0.295908 0.926167 
-140.444 -28.631 34.8 -0.274271 0.190679 0.942559 
-137.654 -19.6913 34.54 -0.326223 0.188552 0.926297 
-124.874 -31.4599 38.61 -0.268364 -0.103253 0.957768 
-174.434 -66.5867 18.29 -0.361953 -0.0341333 0.931571 
-197.692 -82.7562 10.92 -0.179939 -0.246056 0.952407 
-151.733 -75.6075 17.02 -0.104591 -0.79171 0.601877 
-115.517 -69.1944 22.35 0.0103949 -0.831292 0.555738 
-169.266 -74.9232 10.16 0.118683 -0.854585 0.505567 
-174.22 -70.1767 17.27 0.0637546 -0.539362 0.839657 
-85.3976 -50.2836 43.18 -0.34488 -0.236771 0.908293 
-84.4543 -60.3061 35.05 -0.052016 -0.901073 0.430537 
-120.485 -30.8011 40.39 -0.258333 -0.113816 0.959328 
-79.8648 -20.4091 49.28 -0.149487 0.0243721 0.988463 
-113.95 -13.5029 40.13 -0.165285 0.134215 0.977071 
-111.861 -0.681808 36.58 -0.172814 0.360821 0.916484 
-81.1975 3.40301 42.67 -0.201411 0.358378 0.911591 
-49.0066 10.4114 46.23 -0.0951593 0.359074 0.928445 
-39.1902 -15.6409 51.05 -0.0171183 -0.0473686 0.998731 
-0.003174 6.52901 48.01 0.0211502 0.286052 0.957981 
5.07684 -18.79 51.05 0.0278728 -0.122819 0.992038 
48.0069 5.08998 46.23 0.0703782 0.295384 0.952783 
50.0368 -18.54 49.02 0.0390643 -0.0994748 0.994273 
103.887 -1.01003 43.94 0.140135 0.290183 0.946655 
103.377 -27.93 44.7 0.152809 -0.244013 0.957657 
162.713 -4.68642 33.02 0.237321 0.208985 0.948685 
161.418 -29.1936 28.45 0.191601 -0.321426 0.927348 
201.173 -11.4762 23.37 0.2757 0.154114 0.948809 
199.07 -36.0188 21.84 0.200102 -0.387692 0.899808 
228.462 -21.144 13.97 0.259812 0.0326937 0.965106 
226.755 -36.3306 14.22 0.189106 -0.311104 0.931372 
248.461 -25.7437 9.91 -0.0191714 0.137013 0.990384 
244.936 -38.0996 10.67 -0.0563727 -0.260143 0.963923 
272.517 -27.8257 18.29 0.0308749 0.646552 0.762245 
-46.2082 -47.9307 41.15 0.144036 -0.651713 0.744663 
6.60684 -52.83 37.59 0.00481852 -0.729691 0.683761 
47.2407 -51.7213 38.1 0.0267972 -0.706158 0.707547 
98.2946 -53.7956 30.99 0.111041 -0.792384 0.599831 
159.893 -50.2115 17.27 0.132184 -0.785311 0.604825 
198.869 -48.7716 9.65 0.13664 -0.802286 0.581092 
225.217 -46.7559 7.11 0.0881736 -0.731073 0.676579 
255.505 -47.8636 5.59 -0.0871137 -0.879524 0.467812 
269.553 -46.439 14.4098 -0.175738 -0.924233 0.338984 
-59.3871 -63.4949 73.66 -0.523738 0.287419 0.801928 
-60.3755 -65.289 71.37 -0.485106 -0.858474 0.166417 
-36.4372 -57.3474 64.52 0.700053 0.495274 -0.514422 
-14.1603 -68.6657 77.22 0.995846 -0.0824628 0.0386014 
-28.5625 -69.7239 80.77 0.0982991 -0.0970416 0.990414 
-48.6024 -66.9418 80.01 -0.269481 0.0956839 0.95824 
3.04684 -66.03 0 -0.012329 -0.999924 -5.09072e-009 
-44.9812 -63.837 -0 0.0751179 -0.997175 9.9256e-009 
95.5489 -61.4662 0 0.0579695 -0.998318 2.46069e-009 
160.263 -54.9437 0 0.0781484 -0.996942 0 
223.603 -50.9465 0 0.088294 -0.996094 1.34549e-008 
256.815 -49.4901 0 0.0543159 -0.998524 0 
-111.173 -72.1041 -0 0.140404 -0.990094 -8.38787e-009 
-75.903 -67.8903 -0 0.140681 -0.990055 9.74977e-009 
-144.121 -79.0496 -0 0.0938298 -0.995588 5.04786e-009 
-166.644 -77.1781 -0 0.114285 -0.993448 -2.42099e-009 
-192.488 -87.5135 -0 0.353588 -0.935401 0 
-195.413 -85.9961 7.87 0.23634 -0.79909 0.552809 
-211.887 -94.0596 -0 -0.312102 -0.950049 0 
-209.426 -91.9762 4.57 -0.0528095 -0.791905 0.608357 
335.215 -50.5883 86.61 0.80205 -0.0121195 0.597134 
299.024 -50.8502 73.15 -0.449663 0.525878 0.72198 
325.863 -47.8838 63.25 0.976278 0.0886386 -0.197543 
303.063 -37.0138 9.65 0.218446 0.949201 0.226492 
283.386 -33.6409 20.905 0.237472 0.866698 0.438682 
294.864 -33.7974 0 0.408773 0.912636 -4.80856e-009 
314.287 -37.5684 5.84 0.887091 0.144996 -0.43823 
305.186 -37.3048 0 0.97456 -0.224125 1.26565e-007 
273.239 -36.2533 24.13 -0.532838 0.441363 0.721999 
-215.414 -84.3341 3.81 -0.782698 -0.1572 0.602223 
-215.901 -84.0427 -0 -0.979527 -0.201315 -7.19257e-009 
-214.061 -89.5441 4.83 -0.58827 -0.43569 0.681258 
-215.898 -90.164 -0 -0.874255 -0.485467 -6.14839e-009 
-28.4185 -70.5732 79.25 0.0274472 -0.997184 -0.0697942 
-48.336 -68.8114 78.23 -0.216908 -0.969751 0.111957 
105.667 93.73 -0 0.910576 -0.413342 0 
46.2268 -64.3426 0 0.0442641 -0.99902 -1.00218e-008 
198.177 -53.3151 0 0.0983784 -0.995149 0 
271.799 -47.9189 0 0.18867 -0.982041 1.46287e-008 
299.219 -53.4238 73.15 -0.396883 -0.773051 0.494849 
282.161 -48.756 52.32 -0.64868 -0.706967 0.281803 
282.01 -44.364 52.32 -0.618508 0.620195 0.4825 
319.444 -42.6443 21.59 0.998081 -0.0616444 -0.00577385 
-130.919 18.4921 -0 -0.512821 0.858496 6.89379e-008 
39.3669 98.81 -6.1 -0.215748 0.469662 -0.856079 
-1.52316 64.52 -8.13 -0.220921 0.768386 -0.600647 
68.0768 113.04 -3.56 -0.0607127 0.438712 -0.896574 
98.0468 114.05 -2.06233 0.099881 0.235644 -0.966693 
96.7768 54.87 -6.5171 0.437826 0.518939 -0.734173 
72.1368 84.08 -6.63335 0.163529 0.0968607 -0.981772 
57.1469 62.74 -11.68 0.105142 0.441924 -0.89087 
82.8069 95.76 -4.01288 0.130338 0.0274463 -0.99109 
-179.36 -18.5136 -7.62 -0.723025 0.483416 -0.493501 
-158.945 -2.88046 -13.97 -0.596625 0.668109 -0.444599 
-132.665 15.8376 -5.33 -0.503185 0.829183 -0.243434 
-131.827 13.721 -13.97 -0.48698 0.811691 -0.322505 
-93.1038 34.9774 -18.29 -0.386351 0.775622 -0.499143 
-48.5549 52.6792 -22.35 -0.199435 0.777621 -0.596264 
-4.57315 49.54 -24.64 -0.0101134 0.635617 -0.771938 
53.5968 48.01 -26.67 0.106895 0.546279 -0.830754 
109.727 36.07 -20.32 0.266693 0.649116 -0.712407 
164.598 24.1658 -11.68 0.27363 0.794199 -0.542563 
204.679 3.80705 -14.73 0.300495 0.584193 -0.753937 
230.871 -8.85446 -11.94 0.295263 0.363277 -0.883657 
255.28 -16.9703 -7.87 0.0915478 0.462466 -0.881898 
274.109 -20.2412 -9.65 0.386 0.701812 -0.598719 
281.052 -26.8431 -9.37588 0.522985 0.748013 -0.408611 
-134.884 7.60313 -22.35 -0.42635 0.727266 -0.537876 
-118.785 4.99101 -32.77 -0.248001 0.540417 -0.804018 
-87.9324 20.5296 -31.7052 -0.237293 0.526426 -0.816436 
-49.6027 33.9115 -32 -0.107908 0.486162 -0.867181 
-4.57315 31.76 -35.81 -0.00645721 0.484095 -0.874992 
45.9768 30.49 -34.04 0.0904382 0.400424 -0.911856 
106.427 22.61 -28.45 0.161933 0.498442 -0.851665 
164.256 16.5699 -18.29 0.236021 0.582113 -0.778099 
-141.497 -4.59121 -31.75 -0.471805 0.341325 -0.812956 
-131.497 -6.94731 -36.58 -0.304694 0.189601 -0.933388 
-149.679 -11.0458 -27.43 -0.519466 0.284127 -0.80587 
-167.293 -26.6608 -20.83 -0.6384 0.37755 -0.670747 
-182.641 -39.6545 -10.16 -0.74166 0.364613 -0.563025 
-140.571 -11.8026 -30.99 -0.411162 0.0113189 -0.911492 
-130.046 -17.0121 -35.81 -0.283439 0.0369685 -0.958278 
-185.046 -47.1009 -13.97 -0.601257 0.249346 -0.759155 
-212.375 -75.4151 -7.37 -0.493987 0.147547 -0.856858 
-207.502 -78.1179 -7.37 -0.181438 -0.169043 -0.968765 
-179.009 -57.2859 -14.99 -0.329907 -0.0588731 -0.942176 
-189.516 -45.706 -5.08 -0.783551 0.444589 -0.434038 
-217.504 -78.8121 -4.06 -0.830126 0.0279307 -0.556877 
-150.797 -27.5198 -30.73 -0.33249 0.11161 -0.93648 
-143.585 -17.4122 -30.73 -0.362238 0.201541 -0.910035 
-151.582 -24.6449 -30.48 -0.260957 0.135046 -0.955858 
-164.589 -30.9595 -26.42 -0.494104 0.114036 -0.861892 
-161.742 -36.5444 -25.91 -0.361756 -0.160823 -0.918297 
-201.257 -79.6503 -8.38 -0.323891 -0.0155484 -0.945967 
-175.528 -61.3983 -16.26 -0.447019 0.0866818 -0.890315 
-156.07 -47.9834 -27.0472 -0.444632 -0.101801 -0.88991 
-145.948 -33.532 -34.54 -0.307077 -0.000673652 -0.951684 
-154.001 -53.7546 -27.43 -0.224013 -0.277117 -0.934358 
-123.819 -43.2679 -34.8 -0.167255 -0.372338 -0.912902 
-140.444 -28.631 -34.8 -0.274271 0.190679 -0.942559 
-137.654 -19.6913 -34.54 -0.326223 0.188552 -0.926297 
-124.874 -31.4599 -38.61 -0.268364 -0.103253 -0.957768 
-197.692 -82.7562 -10.92 -0.213915 -0.252204 -0.943734 
-174.434 -66.5867 -18.29 -0.361953 -0.0341333 -0.931571 
-136.128 -47.3426 -31.75 -0.0991547 -0.365442 -0.925538 
-151.733 -75.6075 -17.02 -0.0389712 -0.812654 -0.581443 
-115.517 -69.1944 -22.35 0.0103949 -0.831292 -0.555738 
-174.22 -70.1767 -17.27 -0.0568764 -0.526683 -0.848157 
-169.266 -74.9232 -10.16 0.0633187 -0.916039 -0.39606 
-84.4543 -60.3061 -35.05 -0.052016 -0.901073 -0.430537 
-85.3976 -50.2836 -43.18 -0.34488 -0.236771 -0.908293 
-79.8648 -20.4091 -49.28 -0.149487 0.0243721 -0.988463 
-120.485 -30.8011 -40.39 -0.258332 -0.113816 -0.959328 
-113.95 -13.5029 -40.13 -0.165285 0.134215 -0.977071 
-111.861 -0.681808 -36.58 -0.172814 0.360821 -0.916484 
-81.1975 3.40301 -42.67 -0.201411 0.358378 -0.911591 
-39.1902 -15.6409 -51.05 -0.0171183 -0.0473686 -0.998731 
-49.0066 10.4114 -46.23 -0.0951594 0.359075 -0.928445 
5.07684 -18.79 -51.05 0.0278728 -0.122819 -0.992038 
-0.003174 6.52901 -48.01 0.0211502 0.286052 -0.957981 
50.0368 -18.54 -49.02 0.0390643 -0.0994748 -0.994273 
48.0069 5.08998 -46.23 0.0703782 0.295384 -0.952783 
103.377 -27.93 -44.7 0.152809 -0.244013 -0.957657 
103.887 -1.01003 -43.94 0.140135 0.290183 -0.946655 
161.418 -29.1936 -28.45 0.191601 -0.321426 -0.927348 
162.713 -4.68642 -33.02 0.237321 0.208985 -0.948685 
199.07 -36.0188 -21.84 0.200102 -0.387692 -0.899808 
201.173 -11.4762 -23.37 0.2757 0.154114 -0.948809 
226.755 -36.3306 -14.22 0.189106 -0.311104 -0.931372 
228.462 -21.144 -13.97 0.259812 0.0326937 -0.965106 
244.936 -38.0996 -10.67 -0.0563728 -0.260143 -0.963923 
248.461 -25.7437 -9.91 -0.0191714 0.137013 -0.990384 
272.517 -27.8257 -18.29 0.0308749 0.646552 -0.762245 
-46.2082 -47.9307 -41.15 0.144036 -0.651713 -0.744663 
6.60684 -52.83 -37.59 0.00481852 -0.729691 -0.68376 
47.2407 -51.7213 -38.1 0.0267972 -0.706158 -0.707547 
98.2946 -53.7956 -30.99 0.111041 -0.792384 -0.599831 
159.893 -50.2115 -17.27 0.132184 -0.785311 -0.604825 
198.869 -48.7716 -9.65 0.13664 -0.802286 -0.581092 
225.217 -46.7559 -7.11 0.0881736 -0.731072 -0.676579 
255.505 -47.8636 -5.59 -0.0871137 -0.879524 -0.467812 
269.553 -46.439 -14.4098 -0.175738 -0.924233 -0.338984 
-60.3755 -65.289 -71.37 -0.485106 -0.858474 -0.166417 
-59.3871 -63.4949 -73.66 -0.523738 0.287419 -0.801928 
-36.4372 -57.3474 -64.52 0.700053 0.495274 0.514422 
-14.1603 -68.6657 -77.22 0.995846 -0.0824634 -0.0386008 
-48.6024 -66.9418 -80.01 -0.269481 0.0956839 -0.95824 
-28.5625 -69.7239 -80.77 0.0982991 -0.0970416 -0.990414 
-195.413 -85.9961 -7.87 0.23634 -0.79909 -0.552809 
-209.426 -91.9762 -4.57 -0.0522633 -0.74554 -0.664408 
325.863 -47.8838 -63.25 0.976278 0.0886386 0.197543 
299.024 -50.8502 -73.15 -0.449663 0.525878 -0.72198 
335.215 -50.5883 -86.61 0.80205 -0.0121195 -0.597134 
283.386 -33.6409 -20.905 0.237472 0.866698 -0.438682 
303.063 -37.0138 -9.65 0.218446 0.949201 -0.226492 
314.287 -37.5684 -5.84 0.887091 0.144996 0.43823 
273.239 -36.2533 -24.13 -0.532838 0.441363 -0.721999 
-215.414 -84.3341 -3.81 -0.782698 -0.1572 -0.602223 
-214.061 -89.5441 -4.83 -0.560957 -0.437907 -0.702541 
-48.336 -68.8114 -78.23 -0.216908 -0.969751 -0.111957 
-28.4185 -70.5732 -79.25 0.0274472 -0.997184 0.0697942 
282.01 -44.364 -52.32 -0.618508 0.620195 -0.4825 
282.161 -48.756 -52.32 -0.64868 -0.706967 -0.281803 
299.219 -53.4238 -73.15 -0.396882 -0.773051 -0.494849 
319.444 -42.6443 -21.59 0.998081 -0.0616444 0.00577385 
117.347 105.42 0 0.966256 -0.257583 0 
-136.128 -47.3426 31.75 -0.0991547 -0.365442 0.925538 
3 3 2 1 
3 1 0 3 
3 5 4 2 
3 2 3 5 
3 6 4 5 
3 5 7 6 
3 8 6 7 
3 11 10 9 
3 12 13 3 
3 3 0 12 
3 14 5 3 
3 3 13 14 
3 7 5 14 
3 17 16 15 
3 19 18 15 
3 15 16 19 
3 21 160 20 
3 21 23 22 
3 23 21 20 
3 24 21 22 
3 22 25 24 
3 0 1 24 
3 24 25 0 
3 26 0 25 
3 27 12 0 
3 0 26 27 
3 27 28 9 
3 9 12 27 
3 11 9 28 
3 30 11 28 
3 28 29 30 
3 31 30 29 
3 29 32 31 
3 33 31 32 
3 32 34 33 
3 35 33 34 
3 34 36 35 
3 37 35 36 
3 36 38 37 
3 39 37 38 
3 38 40 39 
3 23 19 41 
3 22 23 41 
3 42 22 41 
3 42 43 22 
3 25 22 43 
3 43 44 25 
3 26 25 44 
3 44 45 26 
3 27 26 45 
3 45 46 27 
3 28 27 46 
3 46 47 28 
3 48 29 28 
3 28 47 48 
3 32 29 48 
3 50 49 42 
3 42 41 50 
3 19 51 50 
3 50 41 19 
3 52 51 19 
3 19 16 52 
3 53 52 16 
3 50 55 54 
3 54 49 50 
3 51 55 50 
3 53 56 52 
3 59 58 57 
3 57 56 59 
3 62 61 60 
3 60 63 62 
3 17 63 53 
3 53 16 17 
3 62 63 17 
3 65 51 64 
3 64 66 65 
3 51 52 67 
3 67 64 51 
3 66 64 67 
3 67 68 66 
3 57 68 67 
3 67 56 57 
3 69 57 58 
3 58 70 69 
3 71 68 57 
3 57 69 71 
3 72 66 68 
3 283 73 72 
3 72 71 74 
3 56 53 63 
3 65 66 75 
3 76 65 75 
3 54 76 75 
3 77 54 75 
3 72 77 75 
3 66 72 75 
3 69 70 79 
3 79 78 69 
3 71 69 78 
3 78 74 71 
3 283 74 80 
3 283 81 73 
3 81 283 80 
3 82 80 74 
3 74 83 82 
3 84 73 81 
3 81 85 84 
3 87 86 73 
3 73 84 87 
3 86 77 73 
3 88 54 77 
3 77 86 88 
3 89 42 49 
3 89 49 88 
3 88 49 54 
3 90 88 86 
3 86 87 90 
3 91 90 87 
3 87 92 91 
3 93 91 92 
3 92 94 93 
3 95 93 94 
3 94 96 95 
3 97 95 96 
3 96 98 97 
3 99 97 98 
3 98 100 99 
3 101 99 100 
3 100 102 101 
3 103 101 102 
3 102 104 103 
3 105 103 104 
3 104 106 105 
3 89 88 90 
3 43 89 90 
3 42 89 43 
3 44 43 90 
3 90 91 44 
3 45 44 91 
3 91 93 45 
3 46 45 93 
3 93 95 46 
3 47 46 95 
3 95 97 47 
3 48 47 97 
3 97 99 48 
3 32 48 99 
3 99 101 32 
3 34 32 101 
3 101 103 34 
3 36 34 103 
3 103 105 36 
3 107 38 36 
3 36 105 107 
3 40 38 107 
3 92 87 84 
3 84 108 92 
3 94 92 108 
3 108 109 94 
3 96 94 109 
3 109 110 96 
3 98 96 110 
3 110 111 98 
3 100 98 111 
3 111 112 100 
3 102 100 112 
3 112 113 102 
3 104 102 113 
3 113 114 104 
3 106 104 114 
3 114 115 106 
3 116 106 115 
3 117 84 85 
3 85 118 117 
3 108 84 117 
3 117 119 108 
3 121 120 119 
3 121 119 122 
3 122 119 117 
3 123 109 108 
3 108 124 123 
3 126 112 111 
3 111 125 126 
3 128 115 114 
3 114 127 128 
3 130 85 81 
3 81 129 130 
3 124 108 85 
3 85 130 124 
3 129 81 80 
3 80 131 129 
3 131 80 82 
3 82 132 131 
3 132 82 134 
3 134 133 132 
3 82 83 134 
3 136 135 133 
3 133 134 136 
3 139 138 137 
3 40 141 140 
3 140 142 40 
3 142 140 143 
3 143 144 142 
3 106 145 107 
3 107 105 106 
3 116 145 106 
3 59 56 63 
3 63 60 59 
3 61 147 146 
3 146 60 61 
3 59 60 146 
3 146 58 59 
3 74 78 83 
3 79 134 83 
3 83 78 79 
3 134 79 136 
3 148 136 79 
3 79 70 148 
3 58 146 148 
3 148 70 58 
3 149 135 136 
3 136 148 149 
3 146 147 149 
3 149 148 146 
3 55 51 65 
3 76 54 55 
3 73 77 72 
3 56 67 52 
3 65 76 55 
3 151 150 121 
3 121 122 151 
3 151 122 117 
3 117 118 151 
3 120 121 150 
3 108 119 118 
3 118 85 108 
3 119 120 150 
3 119 151 118 
3 150 151 119 
3 10 13 12 
3 12 9 10 
3 10 152 14 
3 14 13 10 
3 7 152 282 
3 125 111 110 
3 110 153 125 
3 153 110 109 
3 109 123 153 
3 127 114 113 
3 113 154 127 
3 112 126 154 
3 154 113 112 
3 115 128 155 
3 155 116 115 
3 157 156 138 
3 138 158 157 
3 157 158 145 
3 145 116 157 
3 137 138 156 
3 40 142 39 
3 116 155 144 
3 116 144 143 
3 143 159 116 
3 116 159 157 
3 157 159 139 
3 139 156 157 
3 156 139 137 
3 158 138 139 
3 139 159 158 
3 159 143 140 
3 140 158 159 
3 158 140 141 
3 158 141 145 
3 141 40 107 
3 107 145 141 
3 18 19 20 
3 20 160 18 
3 19 23 20 
3 1 2 161 
3 161 162 1 
3 2 4 163 
3 163 161 2 
3 163 4 6 
3 6 164 163 
3 164 6 8 
3 165 10 11 
3 167 162 161 
3 161 166 167 
3 161 163 168 
3 168 166 161 
3 168 163 164 
3 15 169 17 
3 15 18 170 
3 170 169 15 
3 171 160 21 
3 21 172 171 
3 172 21 173 
3 173 21 24 
3 24 174 173 
3 24 1 162 
3 162 174 24 
3 174 162 175 
3 162 167 176 
3 176 175 162 
3 176 167 165 
3 165 177 176 
3 177 165 11 
3 177 11 30 
3 30 178 177 
3 178 30 31 
3 31 179 178 
3 179 31 33 
3 33 180 179 
3 180 33 35 
3 35 181 180 
3 181 35 37 
3 37 182 181 
3 182 37 39 
3 39 183 182 
3 184 170 172 
3 173 185 184 
3 173 184 172 
3 173 186 185 
3 186 173 174 
3 174 187 186 
3 187 174 175 
3 175 188 187 
3 188 175 176 
3 176 189 188 
3 189 176 177 
3 177 190 189 
3 177 178 191 
3 191 190 177 
3 191 178 179 
3 185 193 192 
3 192 184 185 
3 192 194 170 
3 170 184 192 
3 170 194 195 
3 195 169 170 
3 169 195 196 
3 198 197 192 
3 192 193 198 
3 192 197 194 
3 195 199 196 
3 202 201 200 
3 200 199 202 
3 204 61 62 
3 62 203 204 
3 196 203 17 
3 17 169 196 
3 17 203 62 
3 207 194 206 
3 206 205 207 
3 208 195 194 
3 194 207 208 
3 208 207 205 
3 205 209 208 
3 208 209 202 
3 202 199 208 
3 201 202 211 
3 211 210 201 
3 202 209 212 
3 212 211 202 
3 209 205 213 
3 213 221 214 
3 214 212 213 
3 203 196 199 
3 216 205 206 
3 216 206 217 
3 216 217 198 
3 216 198 218 
3 216 218 213 
3 216 213 205 
3 219 210 211 
3 211 220 219 
3 220 211 212 
3 212 214 220 
3 222 214 221 
3 221 223 222 
3 223 221 215 
3 222 225 224 
3 224 214 222 
3 223 215 227 
3 227 226 223 
3 215 229 228 
3 228 227 215 
3 215 218 229 
3 218 198 230 
3 230 229 218 
3 193 230 198 
3 230 193 231 
3 185 231 193 
3 229 230 232 
3 232 228 229 
3 228 232 234 
3 234 233 228 
3 233 234 236 
3 236 235 233 
3 235 236 238 
3 238 237 235 
3 237 238 240 
3 240 239 237 
3 239 240 242 
3 242 241 239 
3 241 242 244 
3 244 243 241 
3 243 244 246 
3 246 245 243 
3 245 246 248 
3 248 247 245 
3 232 230 231 
3 232 231 186 
3 186 231 185 
3 232 186 187 
3 187 234 232 
3 234 187 188 
3 188 236 234 
3 236 188 189 
3 189 238 236 
3 238 189 190 
3 190 240 238 
3 240 190 191 
3 191 242 240 
3 242 191 179 
3 179 244 242 
3 244 179 180 
3 180 246 244 
3 246 180 181 
3 181 248 246 
3 249 248 181 
3 181 182 249 
3 249 182 183 
3 227 228 233 
3 233 250 227 
3 250 233 235 
3 235 251 250 
3 251 235 237 
3 237 252 251 
3 252 237 239 
3 239 253 252 
3 253 239 241 
3 241 254 253 
3 254 241 243 
3 243 255 254 
3 255 243 245 
3 245 256 255 
3 256 245 247 
3 247 257 256 
3 257 247 258 
3 226 227 260 
3 260 259 226 
3 260 227 250 
3 250 261 260 
3 263 260 261 
3 263 261 264 
3 264 261 262 
3 250 251 123 
3 123 124 250 
3 253 254 126 
3 126 125 253 
3 256 257 128 
3 128 127 256 
3 223 226 130 
3 130 129 223 
3 226 250 124 
3 124 130 226 
3 222 223 129 
3 129 131 222 
3 225 222 131 
3 131 132 225 
3 265 225 132 
3 132 133 265 
3 265 224 225 
3 133 135 266 
3 266 265 133 
3 269 268 267 
3 271 270 183 
3 183 142 271 
3 272 271 142 
3 142 144 272 
3 249 273 247 
3 247 248 249 
3 247 273 258 
3 203 199 200 
3 200 204 203 
3 274 147 61 
3 61 204 274 
3 274 204 200 
3 200 201 274 
3 224 220 214 
3 224 265 219 
3 219 220 224 
3 266 219 265 
3 266 275 210 
3 210 219 266 
3 275 274 201 
3 201 210 275 
3 266 135 149 
3 149 275 266 
3 149 147 274 
3 274 275 149 
3 206 194 197 
3 197 198 217 
3 213 218 215 
3 195 208 199 
3 197 217 206 
3 264 277 276 
3 276 263 264 
3 260 263 276 
3 276 259 260 
3 277 264 262 
3 259 261 250 
3 250 226 259 
3 261 276 277 
3 276 261 259 
3 262 261 277 
3 167 166 10 
3 10 165 167 
3 168 152 10 
3 10 166 168 
3 152 164 282 
3 164 152 168 
3 252 253 125 
3 125 153 252 
3 251 252 153 
3 153 123 251 
3 255 256 127 
3 127 154 255 
3 154 126 254 
3 254 255 154 
3 155 128 257 
3 257 258 155 
3 268 280 279 
3 279 278 268 
3 273 278 279 
3 279 258 273 
3 280 268 269 
3 39 142 183 
3 144 155 258 
3 258 281 272 
3 281 258 279 
3 144 258 272 
3 267 281 279 
3 279 280 267 
3 269 267 280 
3 267 268 278 
3 278 281 267 
3 271 272 281 
3 281 278 271 
3 270 271 278 
3 273 270 278 
3 249 183 270 
3 270 273 249 
3 171 170 18 
3 18 160 171 
3 171 172 170 
3 213 212 209 
3 68 71 72 
3 152 7 14 
3 7 282 8 
3 282 164 8 
3 221 213 215 
3 283 72 74 
