ply
format ascii 1.0
comment VCGLIB generated
element vertex 24
property float x
property float y
property float z
property float nx
property float ny
property float nz
property float texture_u
property float texture_v
element face 8
property list uchar int vertex_indices
end_header
4.5 -1.36224 -1 1 0 0 0.497642 0.999023
4.5 1.36224 -1 1 0 0 0.000977 0.999023
4.5 1.36224 1 1 0 0 0.000977 0.502358
-4.5 1.36224 -1 -1 -0 -0 0.499023 0.997642
-4.5 -1.36224 1 -1 -0 -0 0.002358 0.500977
-4.5 1.36224 1 -1 -0 -0 0.499023 0.500977
-1 1.362 -4.5 0 0 -1 0.997642 0.999023
1 1.362 -4.5 0 0 -1 0.500977 0.999023
1 -1.362 -4.5 0 0 -1 0.500977 0.502358
-1 -1.362 4.5 0 0 1 0.502358 0.500977
1 -1.362 4.5 0 0 1 0.999023 0.500977
1 1.362 4.5 0 0 1 0.999023 0.997642
-4.5 -1.36224 -1 -1 0 0 0.000977 0.499023
-1 -1.362 -4.5 0 0 -1 0.499023 0.000977
4.5 -1.36224 1 1 -0 0 0.500977 0.499023
-1 1.362 4.5 0 0 1 0.999023 0.000977
-4.5 -1.36224 1 -1 -0 -0 0.000977 0.002358
-4.5 1.36224 -1 -1 -0 -0 0.497642 0.499023
1 -1.362 -4.5 0 0 -1 0.002358 0.000977
-1 1.362 -4.5 0 0 -1 0.499023 0.497642
4.5 -1.36224 -1 1 0 0 0.500977 0.002358
4.5 1.36224 1 1 0 0 0.997642 0.499023
1 1.362 4.5 0 0 1 0.502358 0.000977
-1 -1.362 4.5 0 0 1 0.999023 0.497642
3 0 1 2 
3 3 4 5 
3 6 7 8 
3 9 10 11 
3 16 17 12 
3 18 13 19 
3 20 21 14 
3 22 15 23 
