ply
format ascii 1.0
comment VCGLIB generated
element vertex 219
property float x
property float y
property float z
property float nx
property float ny
property float nz
element face 104
property list uchar int vertex_indices
end_header
5 2 5 0 1 4.37114e-008 
5 2 -5 0 1 4.37114e-008 
-5 2 -5 0 1 4.37114e-008 
5 2 5 0 -1.04371e-006 1 
1 1.362 5 0 -1.04371e-006 1 
5 -2 5 0 -1.04371e-006 1 
5 2 -5 -0 1.04371e-006 -1 
5 -2 -5 -0 1.04371e-006 -1 
1 -1.362 -5 -0 1.04371e-006 -1 
-5 2 5 -1 -0 0 
-5 2 -5 -1 -0 0 
-5 1.36224 -1 -1 -0 0 
-5 1.36224 1 -1 0 0 
-5 -2 5 -1 0 0 
-5 -2 -5 -1 0 0 
-5 -1.36224 1 -1 0 0 
-5 -1.36224 -1 -1 0 0 
-5 -2 5 0 -4.37114e-008 1 
1 -1.362 5 0 -4.37114e-008 1 
-1 -1.362 5 0 -4.37114e-008 1 
-1 1.362 4.5 0 -1 -4.37114e-008 
1 1.362 4.5 0 -1 -4.37114e-008 
1 1.362 5 0 -1 -4.37114e-008 
1 -1.362 5 -1 0 -0 
1 1.362 5 -1 0 -0 
1 1.362 4.5 -1 0 -0 
5 -1.36224 -1 1 -1e-006 -1e-006 
5 -2 5 1 -1e-006 -1e-006 
5 -2 -5 1 -1e-006 -1e-006 
4.5 1.36224 1 -0 4.37114e-008 -1 
5 1.36224 1 -0 4.37114e-008 -1 
5 -1.36224 1 -0 4.37114e-008 -1 
5 1.36224 -1 0 -1 -4.37114e-008 
5 1.36224 1 0 -1 -4.37114e-008 
4.5 1.36224 1 0 -1 -4.37114e-008 
-1 -1.362 -5 -0 4.37114e-008 -1 
5 -2 -5 -0 4.37114e-008 -1 
-5 -2 -5 -0 4.37114e-008 -1 
1 -1.362 -4.5 -1 0 0 
1 1.362 -4.5 -1 0 0 
1 1.362 -5 -1 0 0 
-1 1.362 -5 0 -1 -4.37114e-008 
1 1.362 -5 0 -1 -4.37114e-008 
1 1.362 -4.5 0 -1 -4.37114e-008 
-5 -2 5 0 -1 -4.37114e-008 
-5 -2 -5 0 -1 -4.37114e-008 
5 -2 -5 0 -1 -4.37114e-008 
1 -1.362 5 0 1 4.37114e-008 
1 -1.362 4.5 0 1 4.37114e-008 
-1 -1.362 4.5 0 1 4.37114e-008 
-1 1.362 4.5 1 0 0 
-1 1.362 5 1 0 0 
-1 -1.362 5 1 0 0 
4.5 1.8 4.5 -0 1.04371e-006 -1 
1 1.362 4.5 -0 1.04371e-006 -1 
-4.5 1.8 4.5 -0 1.04371e-006 -1 
4.5 -1.36224 -1 0 -4.37114e-008 1 
5 -1.36224 -1 0 -4.37114e-008 1 
5 1.36224 -1 0 -4.37114e-008 1 
4.5 -1.36224 1 0 1 4.37114e-008 
5 -1.36224 1 0 1 4.37114e-008 
5 -1.36224 -1 0 1 4.37114e-008 
4.5 1.8 4.5 -1 -1e-006 -4.37114e-014 
4.5 1.36224 1 -1 -1e-006 -4.37114e-014 
4.5 -1.8 4.5 -1 -1e-006 -4.37114e-014 
-1 -1.362 -5 1 0 0 
-1 1.362 -5 1 0 0 
-1 1.362 -4.5 1 0 0 
1 -1.362 -4.5 0 1 4.37114e-008 
1 -1.362 -5 0 1 4.37114e-008 
-1 -1.362 -5 0 1 4.37114e-008 
1 1.362 -4.5 0 -1.04371e-006 1 
4.5 -1.8 -4.5 0 -1.04371e-006 1 
4.5 1.8 -4.5 0 -1.04371e-006 1 
4.5 1.8 -4.5 0 -1 -4.37114e-008 
4.5 1.8 4.5 0 -1 -4.37114e-008 
-4.5 1.8 -4.5 0 -1 -4.37114e-008 
-4.5 1.8 4.5 0 -1 -4.37114e-008 
-1 1.362 -4.5 0 -4.37114e-008 1 
-4.5 1.8 -4.5 0 -4.37114e-008 1 
-4.5 -1.8 -4.5 0 -4.37114e-008 1 
-4.5 -1.8 4.5 0 1 4.37114e-008 
4.5 -1.8 4.5 0 1 4.37114e-008 
-4.5 -1.8 -4.5 0 1 4.37114e-008 
4.5 -1.8 -4.5 0 1 4.37114e-008 
-4.5 1.8 4.5 1 0 0 
-4.5 1.36224 1 1 0 0 
-4.5 1.8 -4.5 1 0 0 
-4.5 -1.36224 1 1 0 0 
-5 -1.36224 1 0 4.37114e-008 -1 
-5 1.36224 1 0 4.37114e-008 -1 
-4.5 1.36224 1 0 4.37114e-008 -1 
-4.5 -1.36224 -1 0 1 4.37114e-008 
-5 -1.36224 -1 0 1 4.37114e-008 
-5 -1.36224 1 0 1 4.37114e-008 
-5 1.36224 1 0 -1 -4.37114e-008 
-5 1.36224 -1 0 -1 -4.37114e-008 
-4.5 1.36224 -1 0 -1 -4.37114e-008 
-4.5 -1.36224 -1 0 -4.37114e-008 1 
-4.5 1.36224 -1 0 -4.37114e-008 1 
-5 1.36224 -1 0 -4.37114e-008 1 
-5 2 5 0 1 4.37114e-008 
-1 1.362 5 0 -1.04371e-006 1 
-5 2 5 0 -1.04371e-006 1 
1 -1.362 5 0 -1.04371e-006 1 
5 2 5 1 1e-006 -1e-006 
5 -2 5 1 1e-006 -1e-006 
5 -1.36224 1 1 1e-006 -1e-006 
5 2 -5 1 -1e-006 -4.37114e-014 
5 2 5 1 -1e-006 -4.37114e-014 
5 1.36224 -1 1 -1e-006 -4.37114e-014 
5 2 5 1 0 0 
5 -1.36224 1 1 0 0 
5 1.36224 1 1 0 0 
5 2 5 1 1e-006 4.37114e-014 
5 1.36224 1 1 1e-006 4.37114e-014 
5 1.36224 -1 1 1e-006 4.37114e-014 
-5 2 -5 -0 4.37114e-008 -1 
5 2 -5 -0 4.37114e-008 -1 
-1 1.362 -5 -0 4.37114e-008 -1 
1 -1.362 -5 -0 4.37114e-008 -1 
1 1.362 -5 -0 4.37114e-008 -1 
1 1.362 -5 -0 1.04371e-006 -1 
-1 1.362 -5 -0 1.04371e-006 -1 
-5 1.36224 1 -1 1e-006 4.37114e-014 
-5 -1.36224 1 -1 1e-006 4.37114e-014 
-5 -2 5 -1 1e-006 4.37114e-014 
-5 -1.36224 -1 -1 1e-006 4.37114e-014 
-5 1.36224 -1 -1 1e-006 4.37114e-014 
-5 -2 -5 -1 1e-006 4.37114e-014 
-5 2 5 0 -4.37114e-008 1 
5 -2 5 0 -4.37114e-008 1 
-1 1.362 5 0 -1 -4.37114e-008 
-1 -1.362 5 0 -1.04371e-006 1 
1 -1.362 4.5 -1 -0 0 
5 -2 -5 1 -1e-006 -4.37114e-014 
5 -1.36224 -1 1 2e-006 8.74228e-014 
5 -1.36224 1 1 2e-006 8.74228e-014 
5 -2 5 1 2e-006 8.74228e-014 
5 -2 -5 1 4.37114e-014 -1e-006 
5 1.36224 -1 1 4.37114e-014 -1e-006 
5 -1.36224 -1 1 4.37114e-014 -1e-006 
4.5 -1.36224 1 0 4.37114e-008 -1 
4.5 1.36224 -1 0 -1 -4.37114e-008 
-1 -1.362 -5 -0 2.04371e-006 -1 
1 -1.362 -5 -0 2.04371e-006 -1 
5 -2 -5 -0 2.04371e-006 -1 
-5 -2 -5 -1e-006 4.37114e-008 -1 
-1 1.362 -5 -1e-006 4.37114e-008 -1 
-1 -1.362 -5 -1e-006 4.37114e-008 -1 
1 -1.362 -5 -1 0 0 
-1 1.362 -4.5 0 -1 -4.37114e-008 
5 -2 5 0 -1 -4.37114e-008 
-1 -1.362 5 0 1 4.37114e-008 
-1 -1.362 4.5 1 0 0 
1 -1.362 4.5 -0 1.04371e-006 -1 
4.5 -1.8 4.5 -0 1.04371e-006 -1 
1 1.362 4.5 -0 4.37114e-008 -1 
-1 1.362 4.5 -0 4.37114e-008 -1 
-4.5 1.8 4.5 -0 4.37114e-008 -1 
4.5 1.36224 -1 0 -4.37114e-008 1 
4.5 -1.36224 -1 0 1 4.37114e-008 
4.5 1.8 4.5 -1 1e-006 4.37114e-014 
4.5 1.8 -4.5 -1 1e-006 4.37114e-014 
4.5 1.36224 -1 -1 1e-006 4.37114e-014 
4.5 1.36224 1 -1 -4.37114e-014 1e-006 
4.5 -1.36224 1 -1 -4.37114e-014 1e-006 
4.5 -1.8 4.5 -1 -4.37114e-014 1e-006 
4.5 1.8 4.5 -1 -2e-006 -8.74228e-014 
4.5 1.36224 -1 -1 -2e-006 -8.74228e-014 
4.5 1.36224 1 -1 -2e-006 -8.74228e-014 
-1 -1.362 -4.5 1 0 0 
-1 -1.362 -4.5 0 1 4.37114e-008 
4.5 1.8 -4.5 0 -4.37114e-008 1 
1 1.362 -4.5 1e-006 -4.37114e-008 1 
1 -1.362 -4.5 1e-006 -4.37114e-008 1 
4.5 -1.8 -4.5 1e-006 -4.37114e-008 1 
4.5 1.8 -4.5 0 -2.04371e-006 1 
-1 1.362 -4.5 0 -2.04371e-006 1 
1 1.362 -4.5 0 -2.04371e-006 1 
1 -1.362 4.5 -0 4.37114e-008 -1 
4.5 -1.8 4.5 -0 4.37114e-008 -1 
-4.5 -1.8 4.5 -0 4.37114e-008 -1 
-1 1.362 4.5 -0 1.04371e-006 -1 
-1 -1.362 4.5 -0 1.04371e-006 -1 
-1 -1.362 4.5 0 4.37114e-008 -1 
4.5 -1.8 -4.5 -1 1e-006 1e-006 
4.5 -1.36224 -1 -1 1e-006 1e-006 
4.5 1.8 -4.5 -1 1e-006 1e-006 
4.5 -1.36224 1 -1 -2e-006 -8.74228e-014 
4.5 -1.36224 -1 -1 -2e-006 -8.74228e-014 
4.5 -1.8 4.5 -1 -2e-006 -8.74228e-014 
4.5 -1.8 4.5 -1 1e-006 1e-006 
4.5 -1.36224 -1 -1 0 -0 
4.5 1.36224 -1 -1 0 -0 
4.5 1.8 -4.5 -1 0 -0 
1 -1.362 -4.5 0 -2.04371e-006 1 
-1 -1.362 -4.5 0 -2.04371e-006 1 
4.5 -1.8 -4.5 0 -2.04371e-006 1 
-1 -1.362 -4.5 1e-006 -4.37114e-008 1 
-1 1.362 -4.5 1e-006 -4.37114e-008 1 
-4.5 -1.8 -4.5 1e-006 -4.37114e-008 1 
-1 -1.362 -4.5 0 9.56289e-007 1 
-4.5 -1.8 -4.5 0 9.56289e-007 1 
4.5 -1.8 -4.5 0 9.56289e-007 1 
-4.5 -1.8 -4.5 1 0 0 
-4.5 1.36224 -1 1 0 0 
-4.5 -1.8 4.5 1 -1e-006 -4.37114e-014 
-4.5 -1.8 -4.5 1 -1e-006 -4.37114e-014 
-4.5 -1.36224 1 1 -1e-006 -4.37114e-014 
-4.5 -1.36224 -1 1 0 0 
-4.5 -1.8 4.5 1 0 0 
-4.5 -1.36224 1 0 4.37114e-008 -1 
-4.5 1.36224 1 1 -1e-006 -4.37114e-014 
-4.5 1.36224 -1 1 -1e-006 -4.37114e-014 
-4.5 1.8 -4.5 1 -1e-006 -4.37114e-014 
-4.5 -1.36224 1 0 1 4.37114e-008 
-4.5 1.36224 1 0 -1 -4.37114e-008 
-5 -1.36224 -1 0 -4.37114e-008 1 
3 0 1 2 
3 3 4 5 
3 6 7 8 
3 9 10 11 
3 12 13 9 
3 14 15 16 
3 17 18 19 
3 20 21 22 
3 23 24 25 
3 26 27 28 
3 29 30 31 
3 32 33 34 
3 35 36 37 
3 38 39 40 
3 41 42 43 
3 44 45 46 
3 47 48 49 
3 50 51 52 
3 53 54 55 
3 56 57 58 
3 59 60 61 
3 62 63 64 
3 65 66 67 
3 68 69 70 
3 71 72 73 
3 74 75 76 
3 75 77 76 
3 78 79 80 
3 81 82 83 
3 82 84 83 
3 85 86 87 
3 85 88 86 
3 89 90 91 
3 92 93 94 
3 95 96 97 
3 98 99 100 
3 101 0 2 
3 102 4 103 
3 4 104 5 
3 105 106 107 
3 4 3 103 
3 108 109 110 
3 111 112 113 
3 114 115 116 
3 117 118 119 
3 118 120 121 
3 6 122 123 
3 124 125 126 
3 9 11 12 
3 11 10 14 
3 14 13 15 
3 127 128 129 
3 17 19 130 
3 17 131 18 
3 132 20 22 
3 133 102 103 
3 134 23 25 
3 135 108 110 
3 136 137 138 
3 139 140 141 
3 142 29 31 
3 143 32 34 
3 37 117 119 
3 144 145 146 
3 147 148 149 
3 150 38 40 
3 151 41 43 
3 152 44 46 
3 153 47 49 
3 154 50 52 
3 155 54 156 
3 157 158 159 
3 160 56 58 
3 54 53 156 
3 161 59 61 
3 162 163 164 
3 165 166 167 
3 168 169 170 
3 171 65 67 
3 172 68 70 
3 173 79 78 
3 174 175 176 
3 177 178 179 
3 180 181 182 
3 183 184 55 
3 185 180 182 
3 185 182 159 
3 186 187 188 
3 189 190 191 
3 187 186 192 
3 193 194 195 
3 196 197 198 
3 199 200 201 
3 202 203 204 
3 205 87 206 
3 207 208 209 
3 205 206 210 
3 205 210 88 
3 85 211 88 
3 212 89 91 
3 213 214 215 
3 216 92 94 
3 217 95 97 
3 218 98 100 
